<?xml version="1.0" standalone="no"?>
<!DOCTYPE svg PUBLIC "-//W3C//DTD SVG 20010904//EN"
 "http://www.w3.org/TR/2001/REC-SVG-20010904/DTD/svg10.dtd">
<svg version="1.0" xmlns="http://www.w3.org/2000/svg"
 width="256.000000pt" height="256.000000pt" viewBox="0 0 256.000000 256.000000"
 preserveAspectRatio="xMidYMid meet">

<g transform="translate(0.000000,256.000000) scale(0.100000,-0.100000)"
fill="#000000" stroke="none">
<path d="M843 2502 c-46 -31 -107 -72 -136 -90 -29 -19 -58 -42 -65 -52 -6
-11 -15 -62 -18 -116 -7 -90 -10 -100 -45 -153 -69 -103 -175 -196 -319 -278
-41 -24 -71 -43 -67 -43 11 0 207 89 235 108 27 17 27 17 12 -5 -48 -69 -244
-335 -273 -371 -57 -68 -171 -241 -164 -249 4 -3 15 1 24 9 21 18 181 101 185
96 2 -1 17 6 33 18 33 22 175 95 175 90 0 -2 -34 -25 -76 -51 -102 -64 -174
-124 -267 -222 l-77 -82 0 -556 0 -556 265 1 265 1 -28 42 c-16 23 -55 82 -88
132 -32 50 -62 95 -67 100 -18 20 17 -41 65 -111 26 -39 48 -75 48 -78 0 -4
12 -24 27 -44 l27 -37 -27 25 c-56 50 -172 249 -164 281 3 11 1 17 -3 14 -20
-12 -19 19 2 104 19 80 20 93 8 118 -32 63 -93 144 -130 174 -22 18 -40 36
-40 41 0 20 33 4 87 -43 32 -28 70 -53 85 -56 31 -6 33 -12 18 -62 -5 -19 -8
-36 -6 -38 3 -4 41 102 72 202 10 33 33 96 51 140 18 44 33 83 33 88 0 13 162
368 166 364 2 -2 -28 -81 -66 -175 -39 -95 -70 -180 -69 -190 0 -10 3 -12 6
-4 7 17 23 15 23 -3 0 -12 4 -11 20 5 23 23 26 46 8 52 -10 4 -10 10 -1 29 18
34 65 112 85 140 15 21 17 21 12 4 -3 -11 4 -3 15 19 11 21 25 44 31 51 16 20
95 226 135 353 43 137 98 293 102 289 4 -4 -26 -148 -33 -159 -3 -5 -8 -39
-10 -76 -9 -156 -15 -194 -47 -332 -19 -80 -32 -159 -30 -176 3 -18 -2 -45
-11 -63 -9 -17 -15 -31 -13 -31 17 0 158 271 213 410 31 78 33 81 29 40 -3
-25 -2 -38 1 -30 4 8 13 31 21 50 l14 35 33 -40 33 -39 11 35 c6 18 14 53 18
76 4 24 10 40 15 38 11 -7 34 73 64 221 20 98 26 166 32 348 3 132 10 223 15
218 5 -5 10 -121 11 -258 2 -247 2 -250 -30 -389 -17 -77 -34 -158 -37 -180
-10 -72 -36 -145 -51 -145 -11 0 -15 -13 -15 -51 0 -65 -53 -194 -198 -484
-90 -178 -119 -249 -158 -375 -58 -192 -62 -249 -27 -375 27 -94 59 -141 115
-171 34 -18 99 -18 141 -1 18 8 46 17 62 21 l30 7 -30 -25 -30 -25 142 -1 141
0 24 37 c12 20 29 47 36 60 17 30 26 29 73 -9 29 -23 39 -39 39 -60 l0 -29
419 1 419 2 -59 176 -60 177 -9 255 c-5 140 -10 313 -11 384 -2 112 -5 135
-25 174 -25 50 -23 58 39 131 28 32 29 36 22 105 -4 39 -9 73 -11 75 -2 2 -31
-17 -63 -43 -33 -25 -65 -45 -71 -44 -11 3 -35 -57 -92 -231 -24 -76 -85 -221
-92 -221 0 0 1 37 3 82 3 68 7 88 26 109 25 31 70 137 62 146 -4 3 -14 0 -22
-7 -12 -10 -19 -10 -27 -2 -8 8 3 33 41 91 30 48 48 86 45 95 -8 20 -7 20 -54
-4 -22 -11 -40 -18 -40 -15 0 2 14 12 31 21 25 12 30 21 26 40 -2 13 0 24 5
24 5 0 7 9 3 20 -4 14 10 42 52 101 51 71 58 78 61 57 2 -14 -6 -62 -17 -106
-12 -44 -21 -102 -20 -129 l1 -48 12 55 c7 30 25 82 40 115 15 33 29 80 32
105 7 55 21 95 51 139 36 53 29 71 -12 31 -30 -29 -35 -31 -36 -14 -3 41 4 60
27 85 13 14 24 31 24 39 0 12 -16 -5 -79 -80 -41 -50 -19 -11 34 60 30 40 55
83 56 94 0 12 28 55 63 96 51 61 69 76 101 82 21 5 44 13 51 19 7 6 22 8 34 4
11 -4 20 -2 20 4 0 6 -12 14 -27 18 -61 15 -88 8 -166 -47 -72 -50 -78 -52
-95 -37 -18 16 -21 13 -75 -71 -31 -48 -81 -113 -111 -145 l-54 -56 14 -40 c8
-23 17 -66 20 -97 6 -48 9 -55 26 -51 14 4 22 -2 29 -19 11 -29 -4 -64 -26
-64 -8 0 -15 -9 -15 -20 0 -13 -7 -20 -20 -20 -18 0 -20 -7 -20 -60 0 -33 -4
-60 -10 -60 -5 0 -10 8 -11 18 0 9 -2 27 -5 39 -2 12 3 40 11 64 21 59 19 63
-16 38 -24 -17 -28 -24 -17 -31 10 -8 10 -9 -2 -5 -28 8 -89 -33 -131 -88 -23
-31 -40 -58 -37 -60 3 -3 23 -6 46 -7 42 -1 44 -6 15 -39 -13 -15 -10 -16 29
-9 24 5 45 7 47 4 5 -4 -46 -24 -63 -24 -7 0 -37 -8 -67 -18 -30 -10 -90 -25
-133 -32 -47 -8 -86 -20 -97 -31 -9 -9 -21 -14 -25 -11 -4 4 -4 1 0 -6 4 -7
-5 -28 -22 -50 -36 -46 -43 -116 -16 -158 18 -27 18 -27 -4 -15 -12 6 -22 16
-22 20 0 12 -57 31 -89 30 -18 -1 -13 -4 17 -11 40 -9 43 -12 38 -34 -5 -19 1
-31 30 -57 20 -17 51 -40 68 -50 26 -15 27 -16 6 -11 -68 20 -95 -3 -68 -59
l16 -34 -32 -10 c-57 -18 -131 -7 -191 27 -52 29 -54 33 -48 63 12 64 21 75
74 94 48 19 52 22 55 57 3 36 2 38 -21 32 l-23 -6 16 43 c9 23 24 52 33 65 13
16 15 30 9 50 -4 15 -9 33 -11 41 -2 8 -24 28 -48 45 -25 17 -49 38 -54 46 -6
10 5 44 36 110 24 52 52 116 62 143 10 26 20 46 22 44 2 -3 -1 -17 -7 -32 -13
-35 -6 -44 11 -13 15 25 19 69 7 62 -10 -7 -10 -3 3 34 6 18 15 29 21 26 5 -3
9 0 7 7 -3 28 1 50 10 45 5 -4 7 3 4 14 -4 15 0 20 14 20 20 0 131 -116 126
-132 -2 -4 6 -10 17 -13 24 -8 65 14 135 70 30 25 56 41 56 35 1 -5 2 -14 3
-20 3 -23 37 -7 121 55 141 106 253 251 289 374 29 99 22 117 -91 243 -75 84
-80 87 -122 87 l-43 1 4 -120 c2 -66 1 -120 -2 -120 -3 0 -13 53 -21 118 l-14
117 -505 2 -505 2 -82 -57z m537 7 c0 -5 -4 -9 -8 -9 -5 0 -9 7 -9 15 0 8 4
12 9 9 4 -3 8 -9 8 -15z m71 -86 c11 -12 8 -12 -17 -2 -41 18 -50 27 -20 22
14 -3 31 -12 37 -20z m-712 -64 c-23 -33 -42 -59 -45 -57 -10 11 20 80 43 98
43 34 44 23 2 -41z m1205 -116 c-9 -104 -27 -173 -60 -222 -28 -43 -45 -50
-24 -10 7 12 10 37 7 55 -3 19 -2 34 2 34 12 0 6 43 -7 48 -19 6 -14 22 7 22
29 0 58 44 66 100 10 76 16 60 9 -27z m-247 -29 c-16 -9 -31 -13 -34 -10 -3 3
5 10 18 15 37 15 47 12 16 -5z m319 -84 c4 0 19 10 33 23 l25 22 -20 -31 c-28
-45 -61 -84 -70 -84 -4 0 -3 5 3 11 7 7 6 22 -3 49 -18 51 -7 86 12 41 7 -17
16 -31 20 -31z m-105 -163 c-10 -9 -11 -8 -5 6 3 10 9 15 12 12 3 -3 0 -11 -7
-18z m-548 -67 c-5 -19 -23 -29 -23 -12 0 7 20 32 26 32 1 0 0 -9 -3 -20z
m-843 -183 c0 -2 -10 -12 -22 -23 l-23 -19 19 23 c18 21 26 27 26 19z m341
-504 c-12 -20 -14 -14 -5 12 4 9 9 14 11 11 3 -2 0 -13 -6 -23z m939 -22 c0
-5 9 -7 20 -4 11 3 27 2 37 -1 27 -11 2 -26 -58 -35 -41 -7 -63 -5 -92 6 -27
11 -35 18 -26 24 8 4 19 3 27 -3 9 -8 16 -9 20 -1 11 18 72 29 72 14z m441
-78 c13 -16 12 -17 -3 -4 -10 7 -25 11 -33 7 -13 -4 -13 -9 -4 -24 13 -21 4
-61 -10 -46 -12 13 -23 76 -12 69 5 -3 12 -1 16 5 9 15 31 12 46 -7z m-1751
-118 c0 -11 -5 -27 -10 -35 -7 -11 -9 -1 -8 34 1 46 18 47 18 1z m1634 10 c9
-21 12 -44 8 -55 -6 -16 -10 -7 -18 35 -5 30 -9 55 -7 55 1 0 9 -16 17 -35z
m61 25 c3 -6 -1 -7 -9 -4 -18 7 -21 14 -7 14 6 0 13 -4 16 -10z m-2064 -82
c15 -11 15 -18 4 -48 l-13 -35 -10 26 c-6 14 -13 52 -16 85 -5 57 -5 58 7 22
7 -21 20 -43 28 -50z m189 49 c0 -2 -10 -12 -22 -23 l-23 -19 19 23 c18 21 26
27 26 19z m1740 -36 c0 -17 -5 -33 -11 -36 -15 -10 -17 -4 -12 33 6 40 23 42
23 3z m-337 -38 c-7 -2 -19 -2 -25 0 -7 3 -2 5 12 5 14 0 19 -2 13 -5z m-1473
-6 c0 -2 -12 -14 -27 -28 l-28 -24 24 28 c23 25 31 32 31 24z m980 -79 c0 -79
-9 -87 -62 -59 -47 26 -74 48 -67 55 11 10 105 55 117 56 8 0 12 -17 12 -52z
m356 -16 c4 -9 9 -28 9 -42 1 -14 5 -38 8 -55 12 -55 -2 -62 -80 -41 -37 10
-73 19 -80 19 -16 0 -6 17 11 17 12 0 56 52 56 66 0 3 9 19 20 35 22 29 43 30
56 1z m482 -71 c-15 -20 -32 -30 -50 -30 -15 -1 -32 -9 -37 -18 -6 -10 -11
-13 -11 -7 0 16 20 31 54 40 16 4 36 19 45 35 9 16 17 24 19 19 2 -6 -7 -23
-20 -39z m-740 14 c-3 -3 -9 2 -12 12 -6 14 -5 15 5 6 7 -7 10 -15 7 -18z
m-158 -5 c0 -5 -10 -10 -22 -9 -22 0 -22 1 -3 9 11 5 21 9 23 9 1 1 2 -3 2 -9z
m786 -126 c-19 -19 -21 -2 -4 29 11 19 13 20 16 5 2 -10 -4 -25 -12 -34z
m-864 -36 c-7 -7 -12 -8 -12 -2 0 14 12 26 19 19 2 -3 -1 -11 -7 -17z m873
-10 c5 4 5 1 1 -6 -6 -11 -11 -11 -24 0 -14 11 -14 11 -5 -6 8 -15 4 -28 -19
-63 -17 -24 -32 -42 -34 -40 -2 2 6 28 17 58 11 30 22 61 25 69 5 13 7 12 18
-2 7 -10 17 -14 21 -10z m-675 -508 c0 -5 -5 -10 -11 -10 -5 0 -7 5 -4 10 3 6
8 10 11 10 2 0 4 -4 4 -10z"/>
<path d="M1971 1866 c-10 -12 -8 -13 8 -9 12 3 21 9 21 14 0 14 -16 11 -29 -5z"/>
<path d="M901 1643 c-16 -58 -25 -109 -18 -103 7 7 37 134 32 138 -2 2 -8 -14
-14 -35z"/>
<path d="M2240 1526 c0 -2 7 -7 16 -10 8 -3 12 -2 9 4 -6 10 -25 14 -25 6z"/>
<path d="M1047 1461 c-4 -17 -3 -21 5 -13 5 5 8 16 6 23 -3 8 -7 3 -11 -10z"/>
<path d="M1528 1283 c6 -2 18 -2 25 0 6 3 1 5 -13 5 -14 0 -19 -2 -12 -5z"/>
<path d="M2237 1233 c-11 -13 -17 -25 -15 -26 1 -1 16 -13 32 -27 16 -14 25
-18 20 -10 -4 8 -11 31 -14 51 l-5 37 -18 -25z"/>
<path d="M1415 1210 c-3 -6 1 -7 9 -4 18 7 21 14 7 14 -6 0 -13 -4 -16 -10z"/>
<path d="M805 1069 c-4 -6 -5 -12 -2 -15 2 -3 7 2 10 11 7 17 1 20 -8 4z"/>
<path d="M758 1003 c-3 -21 -5 -39 -4 -40 1 -1 11 16 23 38 20 36 20 39 3 39
-13 0 -19 -10 -22 -37z"/>
<path d="M600 954 c-23 -58 -69 -241 -75 -299 -4 -33 -10 -55 -12 -48 -5 14
23 225 37 272 17 60 -1 54 -32 -11 -17 -35 -33 -57 -35 -51 -3 7 2 20 11 29 9
8 18 25 20 37 3 12 8 36 11 52 10 49 -10 16 -38 -63 -15 -40 -22 -70 -16 -66
13 8 2 -38 -11 -46 -9 -6 -26 -66 -46 -160 -18 -83 -19 -231 -1 -249 9 -11 9
-13 0 -7 -9 5 -13 -1 -12 -21 0 -24 2 -25 8 -8 7 18 9 16 14 -10 3 -17 9 -41
13 -54 5 -17 4 -22 -5 -17 -11 7 80 -127 137 -202 l24 -32 120 0 119 0 -23 33
c-12 17 -58 68 -100 113 -43 44 -75 84 -71 88 4 4 1 4 -8 1 -9 -3 -27 7 -44
25 l-30 31 1 152 c2 151 23 357 49 472 15 65 12 85 -5 39z"/>
<path d="M720 900 c-6 -11 -8 -20 -6 -20 3 0 10 9 16 20 6 11 8 20 6 20 -3 0
-10 -9 -16 -20z"/>
<path d="M610 821 c0 -49 13 -110 23 -104 6 4 8 0 4 -10 -12 -33 4 -16 19 18
18 43 18 46 -1 39 -12 -5 -15 3 -15 35 0 30 -4 41 -15 41 -8 0 -15 -8 -15 -19z"/>
<path d="M680 826 c0 -8 -3 -23 -6 -33 -3 -10 2 -7 10 7 18 30 20 40 6 40 -5
0 -10 -6 -10 -14z"/>
<path d="M606 564 c-4 -14 -5 -29 -1 -32 3 -3 5 3 5 12 0 12 5 16 15 12 19 -7
20 8 1 23 -11 9 -15 6 -20 -15z"/>
<path d="M592 500 c0 -14 2 -19 5 -12 2 6 2 18 0 25 -3 6 -5 1 -5 -13z"/>
<path d="M723 300 c0 -36 2 -50 4 -32 2 17 2 47 0 65 -2 17 -4 3 -4 -33z"/>
<path d="M585 270 c3 -5 8 -10 11 -10 2 0 4 5 4 10 0 6 -5 10 -11 10 -5 0 -7
-4 -4 -10z"/>
<path d="M720 151 c0 -5 5 -13 10 -16 6 -3 10 -2 10 4 0 5 -4 13 -10 16 -5 3
-10 2 -10 -4z"/>
</g>
</svg>
