<?xml version="1.0" standalone="no"?>
<!DOCTYPE svg PUBLIC "-//W3C//DTD SVG 20010904//EN"
 "http://www.w3.org/TR/2001/REC-SVG-20010904/DTD/svg10.dtd">
<svg version="1.0" xmlns="http://www.w3.org/2000/svg"
 width="256.000000pt" height="256.000000pt" viewBox="0 0 256.000000 256.000000"
 preserveAspectRatio="xMidYMid meet">

<g transform="translate(0.000000,256.000000) scale(0.100000,-0.100000)"
fill="#000000" stroke="none">
<path d="M937 2293 c64 -57 139 -111 182 -132 73 -37 37 -6 -92 79 -67 45
-108 68 -90 53z"/>
<path d="M1745 2170 c-8 -57 -57 -214 -82 -263 -8 -16 -12 -31 -10 -33 6 -6
57 85 95 168 28 62 29 67 17 124 l-12 59 -8 -55z"/>
<path d="M1401 2143 c12 -32 25 -62 29 -68 4 -5 10 -19 14 -30 6 -17 4 -17
-18 5 -20 18 -38 24 -80 25 -33 1 -71 10 -97 24 l-44 22 33 -29 c34 -28 74
-50 170 -93 29 -12 56 -27 59 -32 2 -4 -12 -1 -34 8 -21 9 -47 18 -58 20 -53
7 -152 28 -173 36 -13 5 -28 6 -33 3 -6 -3 -20 3 -32 14 -28 27 -87 51 -227
96 -96 31 -126 36 -206 36 -94 0 -112 -8 -83 -37 7 -7 1 -25 -20 -62 -66 -111
-66 -119 -5 -52 33 35 63 70 67 78 7 11 11 11 24 -2 14 -14 13 -21 -10 -73
-30 -68 -63 -172 -73 -225 -4 -23 -20 -53 -40 -75 -49 -53 -73 -108 -88 -201
-12 -80 -12 -81 11 -96 12 -8 26 -28 29 -43 4 -15 10 -31 14 -37 4 -5 11 -35
15 -65 4 -30 15 -64 25 -75 12 -13 20 -45 25 -95 10 -109 57 -280 76 -280 5 0
9 -6 9 -14 0 -8 13 -43 29 -79 25 -56 36 -69 79 -93 49 -28 69 -55 146 -203 5
-10 43 -37 83 -61 75 -44 151 -126 206 -223 26 -45 64 -59 84 -31 50 69 104
134 111 134 5 0 15 -12 23 -26 14 -28 134 -94 169 -94 17 0 20 7 20 40 0 25 5
40 13 40 18 0 126 -53 171 -83 21 -15 42 -27 46 -27 4 0 -15 60 -42 133 -66
177 -64 169 -42 160 14 -5 16 -3 10 13 -4 10 -11 37 -16 59 -5 22 -13 60 -19
85 -5 25 -6 49 -1 54 5 5 11 -7 15 -27 4 -20 13 -38 20 -41 11 -4 14 -29 12
-106 -1 -55 1 -100 6 -100 4 0 7 -11 7 -24 0 -14 7 -31 15 -40 8 -8 15 -22 15
-30 0 -12 10 -16 36 -16 37 0 37 0 31 37 -4 20 -10 39 -14 42 -4 3 -19 49 -32
101 -19 78 -55 182 -88 258 -3 6 -1 12 4 12 5 0 22 -21 36 -47 15 -28 27 -40
27 -30 0 10 -5 27 -11 39 -6 11 -8 22 -5 25 5 5 43 -51 128 -191 26 -44 48
-76 48 -72 0 16 -47 97 -116 201 -86 130 -98 145 -113 145 -6 0 -11 9 -11 20
0 11 -6 20 -13 20 -13 0 -67 -50 -67 -62 0 -4 -26 -34 -59 -67 -32 -33 -89
-105 -126 -161 -59 -88 -88 -120 -109 -120 -3 0 -2 10 3 23 13 36 3 52 -21 30
-26 -24 -137 -20 -216 6 -42 15 -59 16 -64 8 -5 -8 -8 -6 -8 6 0 9 -4 17 -9
17 -5 0 -16 18 -25 40 -12 30 -21 40 -39 40 -23 0 -47 16 -47 32 0 4 7 8 15 8
14 0 14 3 0 24 -15 23 -53 48 -40 26 3 -6 1 -10 -4 -10 -6 0 -11 9 -11 20 0
13 -7 20 -20 20 -16 0 -20 7 -20 30 0 20 -7 33 -22 41 -18 10 -20 9 -14 -7 4
-13 -2 -10 -19 9 -28 32 -32 47 -10 47 11 0 8 12 -13 47 -16 27 -31 56 -35 66
-4 9 -17 22 -29 27 -38 15 -68 47 -68 70 0 56 69 275 92 291 5 3 11 30 14 60
4 30 14 79 24 109 10 30 23 94 30 142 l12 87 48 22 c49 22 58 34 124 161 45
87 50 90 172 95 105 5 112 5 184 -26 100 -41 202 -102 215 -126 27 -54 44 -68
82 -69 40 -1 50 -16 52 -79 1 -16 7 -35 15 -43 12 -12 12 -19 -5 -53 -25 -53
-25 -54 17 -26 20 14 41 25 45 25 12 0 11 -18 -2 -25 -5 -4 -9 -17 -7 -28 4
-31 -9 -47 -38 -47 -17 0 -24 -5 -24 -20 0 -13 -7 -20 -20 -20 -11 0 -20 -3
-20 -7 0 -13 -157 -15 -179 -3 -17 9 -21 8 -21 -5 0 -8 6 -15 13 -15 6 0 4 -5
-6 -11 -25 -15 -54 13 -32 31 33 27 0 79 -39 64 -10 -4 -16 -1 -16 9 0 23
-159 125 -173 111 -3 -3 -15 -1 -27 6 -11 6 -30 8 -40 5 -16 -5 -19 -12 -14
-33 l6 -27 -24 26 c-23 26 -39 28 -160 21 -52 -3 -28 -20 37 -27 63 -7 65 -8
59 -32 -4 -16 -2 -28 6 -33 8 -5 -3 -10 -29 -15 -22 -4 -41 -11 -41 -16 0 -5
18 -18 40 -29 26 -13 40 -27 40 -40 0 -14 7 -20 22 -20 15 0 41 -19 71 -52 36
-39 47 -47 42 -29 -5 16 -4 21 4 17 6 -4 11 -14 11 -22 0 -18 22 -18 68 2 20
10 45 16 54 15 9 -1 35 7 57 18 22 12 50 21 61 21 24 0 95 -34 105 -50 4 -6
15 -8 25 -5 17 5 19 1 15 -42 -2 -26 -6 -100 -10 -163 l-8 -115 29 31 c16 16
55 50 87 74 66 49 88 87 62 106 -12 9 -7 13 32 18 27 4 56 7 66 7 12 0 17 8
17 30 0 24 12 41 54 80 l55 50 -16 42 c-17 46 -30 313 -16 333 4 6 27 9 50 6
41 -4 41 -4 55 -60 8 -35 11 -73 7 -97 -9 -55 -3 -57 11 -4 15 53 8 139 -15
195 -16 39 -20 42 -64 48 -25 3 -65 3 -89 0 -34 -5 -42 -3 -42 10 0 9 4 16 9
16 6 0 9 9 8 19 0 11 -5 17 -10 14 -4 -3 -18 -6 -30 -8 -12 -2 -53 -17 -92
-33 -104 -43 -115 -46 -115 -28 0 9 -3 15 -7 14 -14 -5 -124 63 -118 72 7 11
-10 46 -71 147 -66 108 -53 99 26 -18 85 -127 94 -139 109 -139 6 0 11 13 11
28 0 20 -13 42 -42 73 -24 25 -71 75 -106 112 -35 37 -65 67 -68 67 -2 0 6
-26 17 -57z m-14 -179 c-3 -3 -12 -4 -19 -1 -8 3 -5 6 6 6 11 1 17 -2 13 -5z
m114 -21 c13 -16 12 -17 -3 -4 -10 7 -18 15 -18 17 0 8 8 3 21 -13z m202 -140
c-7 -2 -19 -2 -25 0 -7 3 -2 5 12 5 14 0 19 -2 13 -5z m-1005 -190 c6 -32 14
-82 17 -112 5 -48 4 -53 -9 -41 -14 11 -16 7 -16 -32 0 -24 -6 -52 -14 -63
-12 -17 -13 -17 -19 7 -4 15 -9 33 -12 41 -4 8 6 28 21 46 21 25 25 38 20 62
-5 27 -83 140 -106 154 -5 3 -24 -16 -41 -42 -28 -45 -30 -53 -25 -118 l5 -70
-13 70 c-15 76 -11 96 28 148 12 18 26 40 29 50 6 16 11 15 65 -12 59 -30 59
-30 70 -88z m-68 -47 c0 -6 -10 -16 -22 -21 -40 -18 -45 -40 -19 -87 13 -24
30 -50 38 -59 12 -14 12 -17 -3 -23 -27 -10 -61 30 -84 100 -21 63 -20 84 3
84 7 0 20 15 30 33 l19 32 19 -24 c10 -13 19 -28 19 -35z m470 -106 c0 -21
-15 -27 -25 -10 -7 12 2 30 16 30 5 0 9 -9 9 -20z m56 -19 c6 -8 18 -12 28 -8
9 4 16 4 16 1 0 -11 -29 -34 -44 -34 -16 0 -46 37 -46 57 0 15 31 5 46 -16z
m-626 -11 c0 -5 -2 -10 -4 -10 -3 0 -8 5 -11 10 -3 6 -1 10 4 10 6 0 11 -4 11
-10z m737 -25 c-2 -5 -18 -11 -36 -13 l-33 -3 18 24 c15 20 22 22 36 13 10 -6
17 -15 15 -21z m606 28 c-7 -2 -19 -2 -25 0 -7 3 -2 5 12 5 14 0 19 -2 13 -5z
m-1231 -110 c15 -5 28 -11 28 -15 1 -39 -2 -48 -14 -48 -8 0 -18 -9 -21 -20
-3 -11 -11 -20 -16 -20 -16 0 -22 29 -10 44 8 9 8 16 2 20 -5 4 -17 -4 -25
-16 -9 -12 -17 -20 -19 -17 -7 7 -16 77 -11 82 6 5 49 0 86 -10z m1198 -57 c0
-7 -9 -16 -21 -19 -20 -5 -20 -5 -3 14 20 23 24 23 24 5z m-1210 -102 c0 -2
-7 -4 -15 -4 -8 0 -15 4 -15 10 0 5 7 7 15 4 8 -4 15 -8 15 -10z m46 -28 c3
-8 1 -31 -5 -52 -13 -50 -16 -134 -6 -159 6 -15 5 -17 -4 -9 -29 27 -59 180
-42 213 13 24 49 28 57 7z m364 -628 c0 -12 -6 -9 -26 13 -19 22 -19 22 4 8
12 -8 22 -17 22 -21z"/>
<path d="M220 1274 c0 -10 14 -35 30 -54 29 -35 29 -35 30 -9 0 15 -12 36 -30
54 -26 25 -30 26 -30 9z"/>
<path d="M1296 1031 c-16 -18 -16 -21 5 -57 13 -22 35 -65 51 -96 25 -50 51
-78 73 -78 3 0 10 12 16 27 l10 28 21 -37 c12 -20 28 -39 37 -41 9 -3 24 -8
34 -12 15 -6 17 -1 17 36 0 24 4 59 9 77 11 37 4 39 -39 17 -42 -22 -37 -3 8
34 33 28 34 30 9 19 -25 -10 -35 -9 -70 10 -23 12 -69 27 -102 35 -53 11 -60
16 -58 35 3 27 1 27 -21 3z"/>
<path d="M33 975 c0 -22 2 -30 4 -17 2 12 2 30 0 40 -3 9 -5 -1 -4 -23z"/>
<path d="M16 874 c-10 -77 -9 -82 18 -77 21 4 26 0 35 -33 6 -22 11 -47 11
-56 0 -10 9 -27 20 -38 11 -11 20 -30 20 -41 0 -12 6 -27 14 -33 8 -6 23 -27
33 -46 31 -59 66 -107 86 -120 32 -19 29 -5 -5 32 -76 80 -198 352 -198 440 0
10 -6 18 -14 18 -8 0 -16 -17 -20 -46z"/>
<path d="M520 914 c1 -5 15 -25 31 -44 l31 -35 -15 31 c-16 31 -47 64 -47 48z"/>
<path d="M1100 811 c0 -7 81 -27 150 -37 51 -7 113 -41 107 -58 -2 -6 -22 -10
-48 -9 -24 2 -60 -2 -79 -9 l-34 -11 24 -11 c23 -10 22 -11 -18 -14 -28 -2
-52 2 -67 12 -28 19 -65 22 -48 5 19 -19 108 -58 111 -48 2 5 8 9 13 9 4 0 6
-7 3 -15 -4 -11 1 -15 17 -16 13 0 54 -8 90 -17 l67 -18 51 46 c28 25 64 56
81 69 39 30 29 41 -38 44 l-52 2 25 18 c33 24 32 41 -1 33 -17 -5 -35 -1 -53
11 -21 15 -49 18 -163 19 -76 0 -138 -2 -138 -5z m310 -121 c0 -5 -7 -7 -15
-4 -8 4 -15 8 -15 10 0 2 7 4 15 4 8 0 15 -4 15 -10z"/>
<path d="M665 740 c10 -11 20 -20 23 -20 3 0 -3 9 -13 20 -10 11 -20 20 -23
20 -3 0 3 -9 13 -20z"/>
<path d="M480 520 c0 -73 4 -120 10 -120 6 0 10 47 10 120 0 73 -4 120 -10
120 -6 0 -10 -47 -10 -120z"/>
<path d="M480 322 c0 -21 7 -47 15 -58 13 -17 14 -14 15 39 0 44 -3 57 -15 57
-11 0 -15 -11 -15 -38z"/>
<path d="M3 168 l-3 -168 210 0 c116 0 210 4 210 8 0 9 -252 288 -257 285 -1
-1 -22 5 -45 13 -24 8 -59 18 -78 23 l-35 8 -2 -169z"/>
<path d="M1916 164 c-10 -25 4 -84 20 -84 15 0 17 20 8 69 -7 34 -18 40 -28
15z"/>
<path d="M480 32 c0 -10 21 -32 32 -32 16 0 8 19 -12 30 -11 6 -20 7 -20 2z"/>
<path d="M1040 20 c0 -6 7 -10 15 -10 8 0 15 2 15 4 0 2 -7 6 -15 10 -8 3 -15
1 -15 -4z"/>
</g>
</svg>
