<?xml version="1.0" standalone="no"?>
<!DOCTYPE svg PUBLIC "-//W3C//DTD SVG 20010904//EN"
 "http://www.w3.org/TR/2001/REC-SVG-20010904/DTD/svg10.dtd">
<svg version="1.0" xmlns="http://www.w3.org/2000/svg"
 width="512.000000pt" height="512.000000pt" viewBox="0 0 512.000000 512.000000"
 preserveAspectRatio="xMidYMid meet">

<g transform="translate(0.000000,512.000000) scale(0.100000,-0.100000)"
fill="#000000" stroke="none">
<path d="M1125 5110 c3 -5 12 -10 20 -10 19 0 31 -38 95 -295 44 -177 44 -182
-50 -375 -64 -134 -80 -176 -84 -225 -3 -33 -14 -107 -25 -165 -29 -152 -48
-275 -56 -353 l-7 -68 -49 -24 c-27 -13 -51 -19 -55 -14 -6 11 -41 12 -46 2
-3 -9 -144 -93 -220 -133 -46 -24 -48 -26 -48 -70 -1 -115 -44 -335 -82 -420
-11 -24 -20 -53 -20 -65 0 -23 42 -152 114 -350 28 -77 53 -154 55 -171 3 -17
-3 -66 -12 -108 l-17 -76 46 -94 c43 -88 76 -134 76 -107 0 6 6 11 14 11 31 0
116 43 116 59 0 10 7 26 16 37 14 17 15 13 10 -56 -33 -438 -34 -518 -3 -602
28 -77 25 -175 -7 -203 -6 -6 -20 -27 -31 -47 -27 -50 -399 -608 -422 -633
-10 -12 -18 -27 -18 -35 0 -19 -72 -54 -270 -132 l-160 -63 -3 -163 -2 -162
1347 0 1348 0 80 157 c71 142 171 294 318 486 19 26 61 90 93 144 31 53 72
111 90 130 19 18 34 37 34 41 0 7 -69 -63 -303 -309 -134 -140 -131 -126 27
100 56 79 125 168 154 198 37 37 63 77 87 131 18 42 52 120 75 172 23 52 75
173 115 268 41 95 83 185 93 200 10 15 47 83 81 152 35 69 67 129 72 135 10
10 10 112 1 193 l-7 53 -33 -65 c-33 -65 -46 -83 -36 -48 2 9 -1 7 -7 -6 -14
-27 -29 -29 -29 -4 0 18 56 104 113 173 94 114 138 183 147 227 9 47 65 236
75 251 8 14 -19 72 -31 67 -8 -3 -26 30 -48 85 -41 102 -42 106 -20 130 19 22
11 56 -17 64 -23 8 -25 21 -4 29 12 4 15 21 14 78 -1 40 4 102 11 137 6 35 9
69 6 77 -6 16 6 83 45 249 35 151 49 230 49 272 0 18 -15 79 -34 135 -41 125
-56 158 -70 158 -17 0 -86 81 -102 119 -12 29 -13 40 -3 58 22 41 2 35 -27 -8
-45 -65 -63 -61 -25 6 44 78 71 114 199 268 23 28 42 61 42 72 0 50 -92 161
-252 303 l-48 42 -502 0 -503 -1 31 -27 c86 -74 327 -274 369 -307 27 -20 91
-76 143 -126 l96 -89 -24 -25 -24 -26 -29 33 c-112 131 -201 228 -209 228 -5
0 6 -21 25 -47 45 -62 97 -156 97 -174 0 -8 -10 -34 -22 -59 l-21 -45 -7 30
c-7 28 -8 28 -9 5 -1 -25 -25 -68 -45 -82 -6 -4 -21 -8 -33 -8 -24 0 -40 36
-30 64 5 12 -5 52 -49 201 -9 28 -31 93 -50 145 -29 78 -41 100 -70 120 -19
14 -81 62 -137 108 l-102 82 -698 0 c-463 0 -696 -3 -692 -10z m755 -280 c0
-5 -2 -10 -4 -10 -3 0 -8 5 -11 10 -3 6 -1 10 4 10 6 0 11 -4 11 -10z m736
-30 c5 0 31 -25 57 -56 48 -58 87 -156 87 -223 0 -29 -2 -31 -27 -25 -16 4
-32 10 -37 15 -10 9 -45 100 -53 139 -3 14 -12 29 -19 33 -8 4 -14 18 -14 30
0 13 -9 40 -19 60 -33 65 -35 74 -8 49 13 -12 28 -22 33 -22z m-203 -105 c22
-38 51 -82 63 -98 13 -15 21 -34 18 -42 -4 -8 -1 -15 5 -15 6 0 11 -10 11 -22
-1 -21 -2 -21 -11 -5 -6 9 -14 15 -18 12 -11 -6 -22 8 -53 70 -53 103 -78 163
-83 196 l-6 34 16 -30 c10 -16 35 -61 58 -100z m-338 -11 c80 -74 102 -89 118
-77 6 6 36 13 65 16 72 8 79 -11 24 -65 l-40 -41 -39 23 c-81 49 -170 129
-169 152 1 17 -4 23 -20 22 -14 0 -20 4 -17 13 8 20 13 17 78 -43z m553 -112
c17 -37 32 -72 32 -78 0 -12 -45 -24 -91 -24 -47 0 -69 73 -29 98 13 8 20 23
20 42 0 55 31 37 68 -38z m-558 -185 c93 -40 215 -102 222 -112 5 -7 14 -6 27
2 16 10 31 5 97 -33 44 -25 106 -66 138 -91 68 -52 90 -58 94 -25 4 27 13 28
30 2 7 -11 21 -20 31 -20 10 0 36 -6 57 -13 22 -8 51 -17 66 -21 26 -6 27 -5
21 27 -4 25 -1 36 11 40 18 7 36 -20 36 -52 0 -26 1 -26 114 4 52 14 105 25
119 25 14 0 53 9 88 20 35 10 82 22 104 25 l40 6 28 -64 c16 -35 30 -79 33
-98 3 -19 9 -48 13 -65 10 -36 8 -219 -3 -309 -5 -40 -4 -55 2 -46 7 10 28 14
66 12 44 -1 56 2 56 14 0 8 9 15 20 15 11 0 20 -7 20 -15 0 -8 9 -15 20 -15
11 0 20 6 20 14 0 7 10 16 23 19 12 2 30 8 40 12 14 6 17 2 17 -19 0 -19 -5
-26 -20 -26 -13 0 -20 -7 -20 -20 0 -13 -7 -20 -20 -20 -11 0 -20 -7 -20 -15
0 -8 -5 -15 -12 -15 -6 0 -9 -3 -6 -6 4 -3 22 -1 42 4 20 6 36 7 36 3 0 -22
-24 -128 -32 -137 -8 -11 -103 -29 -204 -38 l-52 -5 5 42 c2 23 6 49 7 58 3
13 -6 15 -53 11 -75 -5 -73 -4 -115 -55 -30 -37 -38 -56 -41 -97 -2 -28 -7
-70 -10 -94 -4 -24 -4 -53 0 -65 6 -19 10 -17 50 26 23 27 53 59 64 73 l22 25
-6 -31 c-6 -31 16 -139 31 -152 3 -4 3 3 -1 16 -11 36 -8 178 5 201 9 18 20
21 68 21 31 0 89 7 127 15 100 21 117 20 113 -7 -3 -20 -8 -23 -45 -21 -46 2
-50 -5 -37 -54 5 -18 14 -23 53 -25 l46 -3 -31 -17 c-28 -15 -32 -23 -36 -73
-5 -61 -7 -64 -37 -70 -64 -12 -111 -65 -59 -65 49 -1 -10 -19 -128 -41 -65
-11 -153 -31 -194 -44 -41 -13 -104 -31 -139 -40 -36 -9 -87 -28 -114 -41 -41
-21 -59 -25 -111 -21 -33 2 -51 2 -38 0 12 -2 22 -9 22 -14 0 -5 8 -9 19 -9
10 0 34 -6 52 -14 27 -11 124 -23 207 -26 6 0 12 -5 12 -10 0 -11 -31 -9 -230
11 -111 12 -123 13 -323 28 -70 6 -146 16 -170 22 l-42 12 60 19 c57 18 65 18
170 4 132 -19 193 -19 80 0 -190 31 -280 44 -309 44 -33 0 -85 31 -152 89 -37
33 -157 120 -332 243 -37 26 -80 62 -95 80 -15 18 -33 34 -40 34 -7 1 -17 2
-23 3 -16 1 36 98 86 162 22 28 40 57 40 64 0 7 9 24 20 38 29 36 36 82 17
111 -18 27 -82 187 -93 232 -4 16 -15 46 -25 66 -11 21 -19 50 -19 65 0 43
109 250 163 309 l48 53 37 -16 c20 -9 57 -25 82 -36z m941 -10 c-10 -9 -11 -8
-5 6 3 10 9 15 12 12 3 -3 0 -11 -7 -18z m696 -93 c2 -6 -31 -21 -74 -33 -122
-36 -171 -35 -111 2 64 39 176 58 185 31z m-67 -69 c0 -8 7 -15 15 -15 17 0
20 -32 5 -61 -6 -10 -20 -19 -30 -19 -16 0 -20 -7 -20 -31 0 -46 -16 -26 -23
28 -4 26 -9 58 -13 70 -5 18 -1 25 17 32 35 14 49 13 49 -4z m-198 -40 c12
-27 37 -32 70 -14 28 15 41 -3 58 -81 7 -33 17 -63 21 -66 5 -3 9 -17 9 -31 0
-15 -3 -24 -6 -21 -3 4 -29 -4 -57 -18 -28 -13 -55 -20 -58 -16 -4 4 -16 50
-27 102 -11 52 -26 112 -35 133 -14 32 -14 37 -1 37 8 0 20 -11 26 -25z m306
-237 c20 -20 15 -58 -8 -58 -12 0 -20 -7 -20 -16 0 -17 10 -16 80 2 19 5 22 4
14 -5 -13 -14 -104 -28 -146 -23 -33 4 -39 37 -8 45 11 3 20 13 20 22 0 9 -4
13 -10 10 -5 -3 -10 -2 -10 4 0 6 15 15 33 20 43 13 41 13 55 -1z m-180 -45
c-11 -26 -37 -69 -57 -96 l-36 -48 -3 29 c-5 53 11 88 58 125 25 20 48 36 52
36 4 1 -3 -20 -14 -46z m45 -36 l-4 -39 77 5 c86 7 84 10 51 -78 l-15 -40 -87
-3 -87 -3 7 53 c4 29 14 65 21 80 8 15 14 40 14 56 0 16 3 32 7 36 12 12 21
-26 16 -67z m-2813 -490 c0 -2 -15 -35 -34 -73 -18 -38 -44 -93 -56 -122 -13
-29 -24 -51 -26 -49 -4 4 31 196 37 200 2 2 17 13 33 25 26 20 46 28 46 19z
m184 -322 c11 -42 13 -70 7 -90 -10 -31 -10 -30 -15 20 -2 17 -7 55 -11 85 -9
69 -1 63 19 -15z m333 22 c7 0 10 -4 7 -9 -9 -14 -52 -9 -58 8 -5 12 -1 14 17
8 12 -4 27 -7 34 -7z m-67 -203 c0 -91 -12 -144 -34 -144 -7 0 -10 36 -8 112
3 129 5 140 27 132 12 -5 15 -25 15 -100z m-296 43 c29 -37 33 -57 13 -57 -11
0 -27 24 -55 83 -11 21 21 2 42 -26z m452 -87 c22 -36 44 -60 54 -60 17 0 25
-8 94 -100 27 -36 45 -50 97 -68 35 -13 73 -26 84 -28 20 -5 20 -5 1 10 -24
20 -10 20 24 1 15 -9 54 -14 99 -15 74 0 90 -14 26 -22 l-30 -4 40 -18 c22
-10 68 -27 103 -37 72 -23 112 -16 152 26 18 19 29 23 49 18 14 -3 29 -11 33
-16 9 -14 35 8 55 47 9 17 18 25 20 19 3 -7 -17 -45 -44 -84 -26 -39 -52 -78
-58 -88 -20 -33 -59 -86 -70 -93 -19 -14 -121 -8 -154 8 -21 10 -45 14 -67 11
-19 -3 -34 -2 -34 3 0 4 -19 11 -42 15 -78 11 -181 38 -263 67 -44 17 -86 30
-93 31 -17 1 -71 68 -110 138 l-31 55 6 122 c3 67 10 122 14 122 4 0 24 -27
45 -60z m124 -24 c0 -2 -9 -6 -20 -9 -11 -3 -20 -1 -20 4 0 5 9 9 20 9 11 0
20 -2 20 -4z m256 -27 c3 -5 14 -9 24 -9 19 0 36 -17 27 -26 -5 -6 -87 14 -87
21 0 2 -3 10 -6 18 -4 12 0 14 15 10 12 -3 24 -9 27 -14z m-123 2 c4 -1 7 -8
7 -16 0 -8 15 -30 34 -48 60 -61 184 -75 263 -30 43 25 77 24 115 -2 16 -11
15 -14 -15 -42 -17 -17 -42 -36 -54 -42 -39 -20 -148 -13 -229 14 -84 28 -88
29 -79 15 3 -6 -1 -7 -9 -4 -9 3 -13 10 -10 16 3 5 -10 34 -30 63 -40 60 -45
85 -18 80 9 -2 20 -4 25 -4z m-694 -65 c15 -48 17 -176 3 -176 -14 0 -69 106
-82 158 -15 64 -10 73 35 59 26 -7 37 -18 44 -41z m2750 -192 c-6 -60 -17
-118 -23 -130 -6 -11 -45 -66 -86 -120 l-74 -99 -241 0 c-223 0 -243 1 -279
21 -35 18 -42 29 -63 89 -13 38 -30 103 -38 144 -8 42 -17 86 -20 99 -3 12 -1
22 5 22 5 0 10 -7 10 -15 0 -8 6 -15 13 -15 8 0 28 -16 45 -35 18 -19 43 -37
57 -41 14 -3 42 -15 62 -25 21 -10 46 -19 56 -19 25 0 16 24 -10 28 -11 2 -39
19 -61 38 -22 18 -46 34 -53 34 -17 0 18 25 48 34 19 6 27 1 44 -28 31 -52 55
-54 257 -19 23 4 32 11 32 24 0 12 11 23 26 29 28 11 94 3 94 -10 0 -16 -95
-90 -138 -107 -23 -10 -40 -23 -38 -29 6 -16 -61 -51 -114 -59 -25 -4 -55 -13
-67 -21 -12 -8 -36 -14 -53 -14 -20 0 -30 -5 -30 -15 0 -21 50 -19 135 5 39
11 90 25 114 31 36 9 61 28 140 108 53 54 117 112 142 129 25 16 51 38 59 47
13 16 51 36 58 30 1 -1 -3 -51 -9 -111z m-2799 28 c17 -37 18 -51 10 -81 -6
-20 -15 -94 -20 -166 -8 -106 -13 -132 -27 -143 -17 -12 -18 -9 -21 37 -2 28
2 60 8 72 7 11 14 57 16 102 3 45 7 92 9 104 3 12 -6 47 -19 78 -14 30 -20 55
-15 55 6 0 7 6 3 13 -4 6 2 3 15 -7 12 -11 31 -40 41 -64z m2901 -35 c-19 -45
-41 -62 -41 -33 0 20 29 97 43 114 21 27 20 -29 -2 -81z m-575 44 c-8 -12 -81
-22 -101 -15 -13 5 -14 8 -3 15 17 11 111 11 104 0z m-618 -77 c34 -5 52 -11
52 -20 0 -8 9 -14 20 -14 11 0 20 5 20 10 0 6 9 10 20 10 18 0 20 -7 20 -54 0
-30 9 -83 20 -118 31 -98 28 -137 -21 -301 -23 -73 -22 -153 2 -298 11 -70 11
-78 -7 -103 -18 -26 -22 -26 -89 -21 -80 6 -105 12 -105 26 0 5 -10 9 -21 9
-20 0 -21 4 -15 53 3 28 8 81 10 116 3 35 10 69 15 74 6 6 11 21 11 34 0 23 0
23 -27 6 -16 -10 -32 -23 -36 -30 -4 -7 -16 -13 -26 -13 -21 0 -44 23 -34 33
3 4 1 7 -5 7 -7 0 -12 -9 -12 -20 0 -11 5 -20 11 -20 6 0 3 -7 -5 -16 -20 -19
-20 -20 4 -44 19 -19 19 -19 -6 -65 -14 -25 -30 -45 -36 -45 -22 0 -198 90
-199 102 -1 7 -2 39 -2 71 -1 31 -4 57 -7 57 -6 0 -34 -107 -44 -168 -9 -50
23 -100 112 -178 47 -42 99 -100 131 -147 29 -44 55 -77 57 -74 3 3 26 -2 50
-10 42 -14 46 -14 65 3 14 13 22 15 27 7 10 -16 46 12 39 31 -8 20 19 28 33
10 20 -23 37 -16 61 24 12 20 36 53 54 72 17 19 52 65 78 101 l46 66 -12 104
-12 103 -32 9 c-21 7 -35 19 -41 36 -8 23 -5 31 20 55 16 15 35 25 42 23 9 -4
12 13 12 60 0 57 3 68 24 85 23 18 24 18 33 1 6 -10 11 -19 11 -20 10 -14 318
-38 506 -38 74 0 119 -4 128 -12 8 -7 12 -41 12 -94 l0 -81 -79 -78 c-43 -43
-82 -89 -86 -101 -5 -13 -47 -88 -96 -166 -48 -78 -107 -184 -132 -235 -45
-93 -78 -128 -123 -128 -10 0 -29 -11 -43 -23 -15 -13 -51 -31 -81 -40 -98
-28 -212 -72 -213 -82 -1 -5 -21 -23 -45 -39 l-44 -29 -160 7 c-123 5 -169 10
-201 25 -23 10 -60 24 -82 31 -22 7 -57 21 -77 31 -42 21 -66 24 -88 9 -13 -9
-13 -12 2 -24 10 -7 22 -25 27 -39 7 -17 18 -27 30 -27 15 0 21 -9 26 -40 6
-35 10 -40 34 -40 46 0 71 -48 35 -68 -15 -9 -15 -12 2 -35 18 -24 22 -24 97
-19 51 3 77 1 77 -6 0 -7 39 -10 110 -10 100 1 113 -1 133 -20 13 -12 31 -22
40 -22 9 0 17 -5 17 -11 0 -6 10 -10 23 -9 41 4 47 0 47 -25 0 -18 8 -29 26
-37 31 -14 30 -22 -33 -163 -39 -87 -51 -106 -76 -114 -23 -8 -36 -7 -67 9
-34 17 -48 18 -146 10 -172 -15 -225 -26 -253 -55 l-26 -25 25 0 c19 0 21 -3
11 -9 -8 -5 -21 -5 -30 0 -9 5 -41 15 -71 22 -55 13 -55 14 -90 83 -19 38 -50
113 -68 166 -29 84 -32 99 -20 119 7 13 20 29 28 36 12 10 13 15 3 32 -9 13
-9 22 -2 26 6 5 4 16 -6 32 -9 14 -15 34 -12 44 3 10 1 22 -4 25 -14 8 -11 40
6 54 14 11 11 18 -22 52 -21 21 -77 65 -124 98 -48 33 -99 74 -113 92 -15 18
-36 44 -46 56 -13 16 -20 39 -20 67 0 24 -5 45 -10 47 -6 2 -17 43 -25 91 -8
48 -16 91 -19 95 -2 4 -7 28 -11 52 -3 25 -15 88 -25 140 -29 150 -32 170 -21
170 6 0 24 15 41 33 46 48 38 72 -40 125 -36 24 -80 57 -99 74 -31 28 -33 33
-28 76 6 53 32 111 50 113 24 2 54 -3 152 -28 163 -41 322 -71 455 -86 l125
-15 60 51 c33 29 103 92 155 141 140 131 146 134 268 120z m240 -179 c11 -27
23 -65 27 -84 6 -30 6 -33 -7 -20 -17 17 -27 41 -37 94 -5 22 -12 49 -16 60
-6 14 -5 17 3 10 6 -5 19 -32 30 -60z m-2138 5 c24 -47 25 -73 5 -90 -8 -7
-15 -24 -15 -38 l0 -27 -26 26 c-26 26 -26 27 -13 98 7 39 17 71 21 71 4 0 17
-18 28 -40z m2072 -1492 c14 -7 31 -21 37 -30 9 -15 7 -20 -14 -30 -15 -7 -24
-17 -21 -25 3 -8 1 -11 -4 -8 -6 3 -10 15 -10 26 0 11 4 17 10 14 6 -3 7 1 4
9 -3 9 -21 21 -40 28 -26 9 -31 15 -22 25 11 14 14 14 60 -9z m-1721 -456 c34
-23 75 -59 123 -110 l39 -41 -24 -30 c-28 -34 -43 -40 -34 -12 4 14 -1 25 -20
37 -14 9 -33 31 -42 48 -9 17 -31 49 -49 72 -47 57 -44 71 7 36z"/>
<path d="M3465 3550 c3 -5 8 -10 11 -10 2 0 4 5 4 10 0 6 -5 10 -11 10 -5 0
-7 -4 -4 -10z"/>
<path d="M3520 3541 c0 -11 -6 -21 -12 -24 -7 -2 -2 -2 12 1 14 3 39 5 56 5
26 -1 31 3 27 18 -8 28 -83 28 -83 0z"/>
<path d="M3176 3102 c-4 -6 -2 -21 4 -33 15 -28 21 -20 12 16 -5 18 -11 25
-16 17z"/>
<path d="M3201 3014 c0 -11 3 -14 6 -6 3 7 2 16 -1 19 -3 4 -6 -2 -5 -13z"/>
<path d="M3302 3001 c-45 -9 -85 -15 -89 -12 -3 4 -4 0 -2 -7 3 -8 9 -14 14
-14 25 -1 165 36 165 44 0 4 -1 8 -2 7 -2 0 -40 -8 -86 -18z"/>
<path d="M2520 2420 c0 -24 15 -27 24 -4 9 22 8 24 -9 24 -8 0 -15 -9 -15 -20z"/>
<path d="M2495 2370 c-3 -5 -1 -10 4 -10 6 0 11 5 11 10 0 6 -2 10 -4 10 -3 0
-8 -4 -11 -10z"/>
<path d="M2467 2323 c-4 -3 -7 -11 -7 -17 0 -6 5 -5 12 2 6 6 9 14 7 17 -3 3
-9 2 -12 -2z"/>
<path d="M2288 2233 c-16 -2 -28 -9 -28 -14 0 -5 -6 -9 -12 -7 -7 1 -31 -10
-53 -25 -33 -23 -36 -27 -17 -27 15 0 22 -6 22 -20 0 -17 7 -20 40 -20 33 0
40 -3 40 -20 0 -15 7 -20 29 -20 26 0 33 -7 59 -57 28 -56 31 -58 68 -58 37 0
39 2 42 32 2 18 -2 42 -9 55 -9 16 -9 23 0 26 21 7 12 75 -14 107 -24 29 -26
29 -39 11 -14 -17 -16 -17 -38 -2 -13 9 -23 22 -23 29 0 13 -24 17 -67 10z"/>
<path d="M2623 1283 c-13 -2 -23 -9 -23 -14 0 -7 -62 -39 -76 -39 -2 0 -4 9
-4 20 0 24 -13 26 -30 5 -14 -16 -80 -21 -95 -6 -18 17 -205 15 -300 -4 -65
-12 -117 -16 -187 -12 -87 5 -98 3 -98 -11 1 -44 12 -47 182 -48 101 0 199 -7
258 -17 52 -9 113 -19 135 -23 22 -4 55 -20 72 -35 19 -16 39 -26 48 -23 10 4
15 0 15 -15 0 -31 35 -61 72 -61 25 0 29 3 20 12 -7 7 -12 24 -12 39 0 19 -6
30 -21 34 -29 9 -6 35 32 35 16 0 29 4 29 9 0 6 20 13 46 17 37 5 47 3 58 -12
20 -26 146 -33 181 -10 14 9 25 24 25 33 0 20 -29 42 -56 43 -11 0 -29 8 -40
18 -21 19 -170 73 -194 71 -8 -1 -25 -4 -37 -6z"/>
<path d="M1960 740 c0 -11 7 -20 15 -20 8 0 15 9 15 20 0 11 -7 20 -15 20 -8
0 -15 -9 -15 -20z"/>
<path d="M2994 4571 c3 -18 6 -37 6 -42 0 -5 7 -9 15 -9 22 0 18 34 -6 61
l-20 24 5 -34z"/>
<path d="M4042 3040 c-29 -33 -59 -60 -66 -60 -8 0 -19 14 -26 30 -21 50 -27
43 -18 -18 10 -62 44 -163 59 -172 7 -5 -22 -135 -57 -257 -12 -43 13 -23 34
27 23 56 79 130 98 130 6 0 14 9 17 20 3 12 14 20 26 20 15 0 19 -4 14 -17 -9
-26 6 -9 61 66 44 61 56 91 37 91 -6 0 -51 -39 -101 -86 -50 -48 -87 -78 -83
-68 9 26 63 126 76 142 12 15 3 190 -10 203 -5 5 -32 -18 -61 -51z"/>
<path d="M4040 2631 c0 -27 -2 -64 -5 -82 -4 -29 -2 -27 10 11 9 25 18 62 21
83 5 30 4 37 -10 37 -13 0 -16 -10 -16 -49z"/>
<path d="M3920 2505 c0 -8 2 -15 4 -15 2 0 6 7 10 15 3 8 1 15 -4 15 -6 0 -10
-7 -10 -15z"/>
<path d="M3868 2442 c-20 -22 -41 -49 -46 -59 -6 -10 -16 -81 -23 -158 -9
-111 -17 -153 -39 -205 -15 -36 -30 -74 -33 -85 -3 -11 -8 -30 -12 -42 -6 -20
-3 -23 24 -23 16 0 33 4 36 10 3 5 13 63 21 127 23 179 42 276 63 324 l20 44
-6 -62 c-3 -35 -3 -63 0 -63 7 0 137 167 144 185 3 10 -4 13 -23 10 -16 -1
-30 -8 -32 -14 -8 -24 -41 -11 -50 20 l-8 31 -36 -40z"/>
</g>
</svg>
