<?xml version="1.0" standalone="no"?>
<!DOCTYPE svg PUBLIC "-//W3C//DTD SVG 20010904//EN"
 "http://www.w3.org/TR/2001/REC-SVG-20010904/DTD/svg10.dtd">
<svg version="1.0" xmlns="http://www.w3.org/2000/svg"
 width="256.000000pt" height="256.000000pt" viewBox="0 0 256.000000 256.000000"
 preserveAspectRatio="xMidYMid meet">

<g transform="translate(0.000000,256.000000) scale(0.100000,-0.100000)"
fill="#000000" stroke="none">
<path d="M1061 2528 c-25 -31 -131 -88 -164 -88 -11 0 -17 -6 -15 -17 2 -12
-7 -19 -34 -26 -28 -7 -39 -16 -47 -38 -8 -22 -23 -35 -58 -50 -51 -21 -54
-26 -134 -219 -23 -56 -85 -276 -109 -390 -43 -200 -273 -898 -329 -998 -22
-39 -126 -251 -155 -314 -9 -20 -16 -55 -16 -78 l0 -43 47 44 c27 24 65 63 86
87 20 24 37 38 37 32 0 -17 -60 -100 -76 -107 -8 -3 -14 -11 -14 -18 0 -8 -18
-29 -40 -48 l-40 -34 0 -111 0 -112 207 0 207 0 -35 37 -34 36 50 -34 c46 -31
57 -34 142 -37 51 -3 93 -2 93 1 0 3 -16 38 -35 78 -19 41 -37 90 -41 109 -4
24 8 6 41 -60 26 -52 54 -103 62 -112 15 -17 61 -18 698 -18 375 0 684 2 687
5 2 3 -3 46 -13 96 -9 51 -20 135 -23 188 l-6 96 22 -65 c13 -36 35 -81 51
-100 l27 -35 -5 75 c-3 41 -8 89 -10 105 -4 29 -4 29 16 -8 11 -22 22 -37 25
-35 2 2 -7 49 -21 104 -13 54 -31 128 -39 164 -22 87 -48 167 -41 123 2 -18 1
-33 -4 -33 -5 0 -12 -17 -16 -37 -4 -21 -11 -40 -15 -43 -5 -3 -14 -64 -20
-135 -14 -146 -17 -162 -29 -149 -9 9 3 205 15 254 3 14 12 32 19 40 15 17 35
115 35 169 0 20 -14 74 -30 121 -32 91 -34 100 -21 100 4 0 13 -15 19 -33 9
-29 9 -27 4 18 -3 27 -11 56 -19 63 -18 18 -17 42 2 42 12 0 15 17 14 93 l-1
92 -14 -80 c-8 -44 -23 -104 -34 -133 -11 -29 -20 -59 -20 -67 0 -14 -93 -182
-111 -200 -12 -12 9 39 50 122 43 85 61 171 61 287 0 92 2 102 26 134 24 31
25 33 5 23 -18 -10 -21 -9 -21 6 0 10 9 37 20 61 20 43 20 44 -1 83 l-20 40
-63 -46 c-35 -25 -68 -45 -73 -45 -6 0 -21 -8 -34 -19 -13 -10 -43 -22 -66
-26 -23 -3 -47 -12 -52 -19 -16 -19 -197 -21 -225 -2 -12 8 -46 21 -74 30 -29
8 -111 47 -184 86 -116 62 -136 69 -157 60 -31 -14 -39 -5 -17 19 19 21 42
109 57 221 17 126 22 136 82 154 29 8 65 17 80 21 44 9 152 -33 244 -96 23
-16 44 -29 47 -29 3 0 6 18 6 40 0 22 4 40 9 40 8 0 66 -69 99 -116 12 -19 12
-19 25 0 6 10 35 48 64 83 41 50 53 75 58 111 10 72 34 143 66 190 16 24 29
54 29 66 0 13 -17 53 -38 87 -47 78 -129 137 -244 174 -72 23 -90 25 -275 24
l-198 0 -24 -31z m360 -195 c13 -16 12 -17 -3 -4 -10 7 -18 15 -18 17 0 8 8 3
21 -13z m-161 -68 c39 -20 38 -26 -2 -14 -18 5 -34 9 -35 9 -2 0 -3 5 -3 10 0
13 6 13 40 -5z m20 -85 c0 -13 -7 -20 -20 -20 -11 0 -20 -7 -20 -15 0 -9 -6
-12 -17 -8 -15 6 -15 7 2 17 10 6 25 19 34 29 20 22 21 21 21 -3z m-259 -30
c11 0 19 -7 19 -15 0 -22 -40 -19 -75 6 l-30 21 34 -6 c18 -3 42 -6 52 -6z
m129 -40 c13 -9 13 -10 0 -9 -8 0 -24 4 -35 9 l-20 9 20 0 c11 0 27 -4 35 -9z
m312 -165 c9 -20 9 -20 -6 -1 -9 11 -16 27 -15 35 0 14 1 14 6 1 3 -8 10 -24
15 -35z m-758 -431 c17 -7 22 -34 6 -34 -5 0 -14 9 -20 20 -12 22 -10 23 14
14z m333 -23 l24 -20 -38 5 c-99 13 -109 16 -88 24 35 15 76 11 102 -9z m883
-26 c0 -22 -4 -25 -37 -25 l-38 0 30 25 c38 31 45 31 45 0z m-1300 -174 c11
-28 8 -51 -8 -51 -11 0 -33 61 -26 71 10 16 22 9 34 -20z m450 9 c6 -11 20
-20 30 -20 11 0 20 -4 20 -10 0 -15 47 -12 80 5 28 14 60 11 60 -6 0 -11 -66
-29 -107 -29 -53 0 -122 41 -123 73 0 15 30 6 40 -13z m773 -6 c21 -22 -62
-94 -108 -94 -28 0 -16 18 21 32 26 9 37 20 41 40 5 26 30 38 46 22z m-173
-54 c8 -5 11 -12 8 -16 -10 -9 -38 3 -38 16 0 12 10 13 30 0z m-92 -227 c34
-66 40 -93 20 -93 -6 0 -19 -7 -29 -15 -15 -15 -17 -13 -23 20 -8 39 -26 48
-26 12 0 -30 -36 -52 -64 -39 -11 6 -29 13 -40 16 -13 5 -17 13 -13 29 6 24
48 171 51 174 0 1 13 4 28 8 24 6 27 4 30 -22 2 -15 8 10 13 57 l9 85 6 -85
c6 -67 13 -98 38 -147z m-918 182 c10 -12 10 -19 2 -27 -9 -9 -16 -7 -27 8 -8
10 -15 22 -15 27 0 13 27 7 40 -8z m135 -129 c28 -58 35 -87 40 -156 7 -102
-9 -90 -19 14 -8 79 -36 154 -72 187 -13 12 -24 31 -24 42 0 20 1 20 20 2 12
-11 36 -51 55 -89z m1146 -39 c-10 -9 -11 -8 -5 6 3 10 9 15 12 12 3 -3 0 -11
-7 -18z m-1334 -179 c-3 -7 -5 -2 -5 12 0 14 2 19 5 13 2 -7 2 -19 0 -25z m10
-80 c-3 -8 -6 -5 -6 6 -1 11 2 17 5 13 3 -3 4 -12 1 -19z m47 -167 c-2 -2 -6
2 -9 10 -24 67 -35 104 -34 118 0 9 11 -15 24 -54 13 -38 21 -72 19 -74z
m1177 31 c23 -30 24 -42 4 -42 -19 0 -55 74 -54 110 1 23 2 22 16 -9 8 -19 23
-46 34 -59z m-1129 -9 c1 -10 2 -34 2 -53 1 -23 6 -35 15 -35 8 0 16 -6 19
-12 2 -9 -8 -13 -32 -13 -33 0 -36 3 -36 28 0 45 12 102 21 102 5 0 10 -8 11
-17z m1208 -4 c0 -14 -17 -10 -23 5 -4 10 -1 13 9 9 7 -3 14 -9 14 -14z m-621
-358 c-27 -23 -35 -25 -44 -12 -8 14 46 54 58 42 7 -7 2 -17 -14 -30z"/>
<path d="M1930 2141 c0 -60 -5 -111 -14 -131 -12 -31 -11 -35 24 -89 31 -46
39 -69 45 -126 9 -84 22 -128 23 -75 0 19 8 55 16 79 10 26 16 75 16 120 l-1
76 -19 -37 c-33 -61 -40 -56 -41 29 -1 66 -2 73 -10 46 -17 -58 -21 -36 -14
66 7 98 2 141 -16 141 -5 0 -9 -44 -9 -99z"/>
<path d="M1800 1994 c-88 -101 -103 -129 -33 -61 68 66 79 59 13 -8 -29 -30
-51 -57 -48 -60 6 -7 88 36 88 45 0 4 11 23 24 43 21 30 47 127 35 127 -2 0
-38 -39 -79 -86z"/>
<path d="M1685 1869 c-11 -17 1 -21 15 -4 8 9 8 15 2 15 -6 0 -14 -5 -17 -11z"/>
<path d="M2053 1493 c-6 -21 -23 -69 -38 -108 -31 -82 -27 -80 27 12 39 67 53
122 33 130 -6 2 -16 -14 -22 -34z"/>
<path d="M2151 593 c-1 -7 3 -34 9 -60 5 -26 12 -79 15 -118 3 -38 21 -128 40
-200 20 -72 40 -149 47 -172 l11 -43 133 0 c74 0 134 2 134 6 0 3 -10 23 -22
45 -16 28 -32 42 -51 46 -18 4 -24 9 -17 13 9 6 8 16 -6 39 -10 17 -21 31 -25
31 -12 0 -188 229 -189 246 0 6 -12 33 -26 60 -15 27 -32 65 -40 84 -7 19 -13
30 -13 23z"/>
<path d="M2150 231 c0 -14 28 -71 35 -71 5 0 -22 70 -30 79 -3 2 -5 -1 -5 -8z"/>
<path d="M2216 15 c-3 -8 -1 -15 4 -15 6 0 10 7 10 15 0 19 -6 19 -14 0z"/>
</g>
</svg>
